<svg id="Layer_1" data-name="Layer 1" xmlns="http://www.w3.org/2000/svg" viewBox="0 0 409.58 409.58"><title>icon_filters</title><path d="M246.63,32.5c-14.47-18.06-36.95-24-56.1-14.3-17,8.6-27.78,22.24-28.78,41.75-1,20,13,39.47,32.62,46.65,2.6,1,3.27,2.15,3.26,4.8q-.12,68.26-.06,136.52h0q0,40.59,0,81.17,0,28,0,56c0,7.13,5.3,12.34,12.18,12.23s11.76-5.46,11.76-13.37q0-135.17-.09-270.33c0-4.11.47-6.94,5-7.7a11.75,11.75,0,0,0,3.08-1.39C253.88,92,269,60.39,246.63,32.5ZM209.42,85.55c-14.93-.07-23.94-9.25-23.87-24.36.08-14.63,9.34-23.64,24.31-23.61,14.64,0,23.75,9.34,23.7,24.21S224.26,85.62,209.42,85.55Z"/><path d="M368.79,304.42c-2.52-.91-3.39-1.93-3.39-4.71q.17-68.25.08-136.52h0V84.4q0-29.2,0-58.41a12,12,0,0,0-21.87-7.19c-1.87,2.65-2.08,5.63-2.08,8.74q0,135.84.1,271.68c0,3-.79,4.21-3.6,5.26-19.36,7.24-33,26.61-32.41,46.2.44,14.6,7.25,26.29,18.31,35.34,14.39,11.78,30.59,15.36,47.79,7.08,18-8.68,29-23,29.6-43.61C401.85,330.52,387.65,311.31,368.79,304.42Zm-15.5,69c-14.72-.06-23.85-9.3-23.8-24.11s9.25-24,24.33-23.9c14.65.07,23.74,9.38,23.67,24.25C377.43,364.32,368.1,373.47,353.29,373.42Z"/><path d="M80.62,160.31c-2.26-.82-3.11-1.74-3.1-4.25.11-27.28.08-54.56.08-81.83,0-16.08,0-32.15,0-48.22,0-7.49-5.58-12.8-12.7-12.41-6.48.35-11.2,5.75-11.2,12.92,0,41.54-.11,83.08.11,124.61,0,5.49-1.07,8.29-6.62,10.9-17.5,8.25-28.33,22.22-29.35,42-1,20,13.36,39.65,33.09,46.7,2.2.79,2.83,1.75,2.82,4.05-.1,21.62-.06,43.24-.06,64.86s0,43,0,64.51c0,3.41.67,6.51,3,9.12a11.93,11.93,0,0,0,13.28,3.36c4.79-1.79,7.7-6.1,7.71-11.63q0-64.68,0-129.37c0-2.64.46-4.06,3.34-5.11,18.52-6.73,32.4-25.62,32.69-44C113.88,186.82,100.07,167.35,80.62,160.31Zm-2.54,66.43c-3.36,1.7-6.88,2.78-10.78,2.19-3.11-.47-6.26.54-9.43-.33-11.35-3.12-17.76-13.72-16-26.8s10.33-20.36,24-20.32c11.79,0,20.39,6.18,22.89,16.39C91.83,210.37,87.61,221.89,78.08,226.74Z"/></svg>