<svg id="Layer_1" data-name="Layer 1" xmlns="http://www.w3.org/2000/svg" viewBox="0 0 202 202"><defs><style>.cls-1{fill:#fff;}</style></defs><title>indoor_plants_icon_svg_white</title><path class="cls-1" d="M175.63,91v32.1c0,17.67,0,35.33.11,53,0,3.13-.58,4.28-4.05,4.26-12-.06-12,.1-12-12,0-28.26-.1-56.53,0-84.79a7.57,7.57,0,0,0-3.6-7Q130.61,58,105.36,39.17c-2.85-2.14-4.5-2-7.25.11q-25,18.72-50.38,37a7.6,7.6,0,0,0-3.6,7c.1,30.45-.07,60.9.06,91.35,0,4.16-.58,5.88-5.36,5.69-10.61-.41-10.63-.11-10.62-10.75q0-36.6,0-73.19V90.75c-5.07,3.72-9.52,6.9-13.87,10.22-1.65,1.26-2.9,1.53-4-.54a3.07,3.07,0,0,0-.28-.42c-7.84-9.88-7.83-9.87,2.28-17.3Q55.28,51.2,98.08,19.63c2.66-2,4.37-2.33,7.27-.18q46,34.08,92.21,67.79c2.84,2.07,3,3.33.89,6.15-7,9.16-6.84,9.27-15.92,2.61Z"/><path class="cls-1" d="M99.7,133.46c0-4.32.75-8.8-.19-12.9-1.24-5.42-5.51-9.23-10.69-10.86-10-3.13-15.25-9.7-16.89-19.81-.63-3.89.7-4.65,4.24-4,9.66,1.81,20.23,11,19,20.39-.41,3,1.85,4.28,4.67,6.45-.71-8,1.2-15-2.93-22.06-4.81-8.16-2.56-18.24,3.9-25.14,1.63-1.73,2.39-1.49,3.79.13,6.82,7.88,7.24,20.47.71,28.34a6.32,6.32,0,0,0-1.87,4.44c.11,4.67,0,9.34,0,14.64a8.57,8.57,0,0,0,4.95-7.25c1.26-10.23,7.14-16.67,17.05-19.56,4-1.17,5.27,0,4.87,4.17-.87,8.75-7.48,20-17.34,20.91-4.3.41-9.52,7.58-9.53,12,0,3.49,0,7,0,11.25a25.59,25.59,0,0,0,8.2-9.18c5-9.5,14.32-13.86,24.42-12,3.12.58,3.77,1.56,2.37,4.6-3.46,7.57-14.28,16.73-23.87,13.9-3.17-.94-10.31,6.83-10.33,10.88,0,9.25,0,18.51,0,27.76,0,1.57.61,3.41-2.26,3.4s-2.25-1.84-2.25-3.41c0-8.91,0-17.83,0-26.75,0-5.32-7.93-13.24-13.25-13.35-10.36-.2-18.24-5.87-21.46-15.29-.87-2.53-.89-3.86,2.47-4.18C78,110,90.29,116.1,92,125.87,92.64,129.56,96.62,130.94,99.7,133.46Z"/></svg>