<svg id="Layer_1" data-name="Layer 1" xmlns="http://www.w3.org/2000/svg" viewBox="0 0 128 128"><defs><style>.cls-1{fill:#fff;}</style></defs><title>outdoor_plants_icon_white</title><path class="cls-1" d="M61.6,21.43c4.76,8.54,4.72,17.7,3.57,27.08-.19-.07-.32-.08-.39-.15-4-4-7.9-8.14-10.76-13.09a36.1,36.1,0,0,1-4.8-19.69c.08-2.09.25-4.19.39-6.29A22.63,22.63,0,0,0,49.42,4c-.1-.66.1-.8.65-1,3-.89,5.9-.22,8.66,1,6.48,2.85,10.76,7.88,13.33,14.31a28.12,28.12,0,0,1-1.62,25.48,17.61,17.61,0,0,1-2.52,3.43c-.42-.15-.21-.47-.2-.7a51.12,51.12,0,0,0-2.27-18.18,26.81,26.81,0,0,0-3.62-7.16,2.62,2.62,0,0,1-.9-1.08C61.08,20.58,61.59,20.88,61.6,21.43Z"/><path class="cls-1" d="M82.18,104.41a3.44,3.44,0,0,1,2.23,1.43A3.65,3.65,0,0,0,87,107.38a2.26,2.26,0,0,1-2.68-.91,5,5,0,0,0-4-1.76,5.84,5.84,0,0,1-4.24-1.79,1.79,1.79,0,0,0-2.47.07h0c-1.13-.61-2.29-.13-3.43-.09-.48,0-.42.61-.46,1a20.43,20.43,0,0,0,.32,5.79,6.2,6.2,0,0,1-.31,3.83l0,0a17,17,0,0,1-2.18,1.7c-.25.09-.3,0-.24-.24.46-.43.94-.84,1.38-1.29a3,3,0,0,0,.85-2.71c-.4-2.61-.93-5.22-.16-7.89-1.4,0-2.74,0-4.07,0-.81,0-.51.66-.56,1.06-.19,1.69-.8,2.3-2.64,2.39a2.75,2.75,0,0,0,2.05-2.62c0-.55,0-1-.69-.84a.48.48,0,0,1-.12,0c-2.48-.09-2.5-.09-3.08,2.25a5,5,0,0,1-2,3c-.24.24-.36.62-.75.7A22.74,22.74,0,0,0,55.65,112c-.2,0-.32,0-.24-.27a8.7,8.7,0,0,1,2.69-4.1c1.3-1.09,1.65-2.62,2-4.18.11-.53-.12-.52-.45-.54L56,102.7a1,1,0,0,0-.73.29c-2.8,2.13-3.85,5.09-4,8.46-.11,2.12-.59,2.74-2.5,2.9,1.73-.62,2-2,1.88-3.52-1.47,1-3.26.78-4.87,1.24-.24.1-.49.22-.48-.22a17.36,17.36,0,0,1,3.34-.83A2.49,2.49,0,0,0,50.89,109,9.09,9.09,0,0,1,55,102.63a63.5,63.5,0,0,1-14.93-3.31,38.74,38.74,0,0,1,8.19-2.71,62.19,62.19,0,0,1,12.81-1.73c1,0,1.37-.32,1.35-1.43-.09-9.24-.19-18.48,0-27.72a3.84,3.84,0,0,0-.33-1.61,81,81,0,0,0-4.68-9.31,6.13,6.13,0,0,1-1.21-3.48,71.33,71.33,0,0,1,7.11,10.85,69.35,69.35,0,0,0,1.9-7.24c.39-1.78.65-3.58,1.18-5.33a3.49,3.49,0,0,1,1.23-2A101.36,101.36,0,0,1,66.46,59a83.14,83.14,0,0,1,5.74-8.3,2.11,2.11,0,0,1-.27,1.74,24.2,24.2,0,0,1-1.59,2.92c-2.08,3-2.73,6.41-3,10-.67,9.49-1,19-1.35,28.51,0,.92.37.94,1,1a89.22,89.22,0,0,1,18.68,2.51c2.34.57,4.67,1.19,7.17,2a126.69,126.69,0,0,1-16.64,3A4.71,4.71,0,0,0,79.85,104a17.75,17.75,0,0,1,1.77.2C81.79,104.34,82,104.23,82.18,104.41Z"/><path class="cls-1" d="M87.78,38.73c-4.66,1.3-8.32,4.15-11.66,7.48-1.27,1.27-2.43,2.67-3.77,4.14a14.61,14.61,0,0,1,1-6.37A21.94,21.94,0,0,1,95.79,29.5a12.15,12.15,0,0,1,8,3.52c1.16,1.21,1.13,1.26,0,2.37a26.55,26.55,0,0,0-3.13,3.73,30.67,30.67,0,0,1-10.67,9.61,33.52,33.52,0,0,1-12.16,3.35c-1.45.15-2.91.26-4.64.41,4-5.86,8.28-11,14.91-13.51a4.69,4.69,0,0,1,2.73-.78C89.78,38,88.82,38.71,87.78,38.73Z"/><path class="cls-1" d="M40.24,39.67c4.54,1.62,8,4.65,11.14,8.23a34.78,34.78,0,0,1,3.89,5.3c-7.46-.33-14.52-1.53-20.57-6.14a33.78,33.78,0,0,1-6.62-6.94,23.05,23.05,0,0,0-3.89-4.47c-.5-.4-.34-.69-.07-1.07a9.35,9.35,0,0,1,5.41-3.64c6.81-1.92,13-.28,18.41,3.94a20.29,20.29,0,0,1,8.27,15.4c0,.23,0,.46,0,1-.85-1-1.52-1.81-2.21-2.58a31.92,31.92,0,0,0-11.27-8.54,11.13,11.13,0,0,0-2.25-.72c-.57,0-1.11-.3-1.68-.36a6.49,6.49,0,0,0-1.42-.23c.29.09.77.06,1.22.19S39.8,39.19,40.24,39.67Z"/><path class="cls-1" d="M82.06,118.27c-1-.46-2-1-3-1.36a3.25,3.25,0,0,1-2.39-3.42,9.59,9.59,0,0,0-1.88-6.3A6.56,6.56,0,0,1,73.62,103h0a20.59,20.59,0,0,0,3,6,5.67,5.67,0,0,1,.75,3.77,3.25,3.25,0,0,0,2.31,3.78A20.23,20.23,0,0,1,82.32,118C82.36,118.25,82.32,118.38,82.06,118.27Z"/><path class="cls-1" d="M57.58,109a1.29,1.29,0,0,1,.75-.7,3.8,3.8,0,0,0,.57,2.48c1,2.14,2.36,4.09,3,6.39a4.24,4.24,0,0,1,.23,1.63c-.92-2.52-2.45-4.74-3.59-7.45-.11,1.43.33,2.66-.43,3.75.07-1.83-.55-3.6-.36-5.43C57.81,109.41,58,109.06,57.58,109Z"/><path class="cls-1" d="M82.18,104.41a.47.47,0,0,1-.56-.19,7.53,7.53,0,0,1,4.82-.73,26.2,26.2,0,0,1,5,.83c-.9,0-1.79,0-2.68,0-1.78-.08-3.54-.39-5.33-.31C83,104,82.47,103.86,82.18,104.41Z"/><path class="cls-1" d="M41.55,108.39c2.74-.37,5.5-.9,8,.85C47,108.23,44.21,109,41.55,108.39Z"/><path class="cls-1" d="M69.74,113.49c.07.12.22.26.21.38-.25,2,.33,4,.3,6,0,.72.38,1.51-.26,2.16-.15-1.24-.27-2.49-.47-3.73a8.32,8.32,0,0,1,.25-4.84Z"/><path class="cls-1" d="M87.09,115.29c-3,.55-5.69-1.6-8.7-.92a7,7,0,0,1,4.41-.28C84.23,114.46,85.56,115.21,87.09,115.29Z"/><path class="cls-1" d="M51.46,117.69a10.15,10.15,0,0,1-.23-4.35A5.6,5.6,0,0,1,51.46,117.69Z"/><path class="cls-1" d="M64.73,105.36a4.9,4.9,0,0,1,.34,4.29A12.3,12.3,0,0,1,64.73,105.36Z"/><path class="cls-1" d="M70,122c.5-.67,0-1.46.26-2.16a14.59,14.59,0,0,1,.13,3.85A2.72,2.72,0,0,1,70,122Z"/><path class="cls-1" d="M87.78,38.73a7,7,0,0,1,3.47-.66L88,39Z"/><path class="cls-1" d="M61.6,21.43l-1.43-2.05a4.12,4.12,0,0,1,1.66,1.8Z"/><path class="cls-1" d="M55.41,111.77l.24.27a2.85,2.85,0,0,1-1.81,1.36Z"/><path class="cls-1" d="M45.23,111.85l.48.22a3.48,3.48,0,0,1-2.38.3Z"/><path class="cls-1" d="M67.35,114.92l.24.24L66,116.54A2.66,2.66,0,0,1,67.35,114.92Z"/><path class="cls-1" d="M82.06,118.27l.26-.24L84,119A3,3,0,0,1,82.06,118.27Z"/><path class="cls-1" d="M38.81,39a3.29,3.29,0,0,1,1.67.47l-.24.22-1.66-.46C38.52,39,38.56,38.88,38.81,39Z"/><path class="cls-1" d="M38.81,39l-.23.23-1.47-.27A1.82,1.82,0,0,1,38.81,39Z"/></svg>