<svg id="Layer_1" data-name="Layer 1" xmlns="http://www.w3.org/2000/svg" viewBox="0 0 510 510"><defs><style>.cls-1{fill:#fff;}</style></defs><title>tools_icon_white</title><path class="cls-1" d="M426.43,422.9c5.08-36.43,9.93-72.88,12-109.66a1017.42,1017.42,0,0,0,.21-109.9c-1.9-37-6.77-73.59-11.9-110.19-.87-6.15.57-10.94,4.75-15.45,11.51-12.45,11.09-30.3-.74-42.29s-29.83-12.52-42.28-1.11c-4.79,4.4-9.88,5.47-16.05,4.2C337.14,31.29,301.64,26,265.54,25.3c-41.87-.79-83,4.74-123.88,13.18-6.18,1.27-11.38.38-16-4.16-5.61-5.44-12.58-7.91-21-8.24-12.35.59-22.1,6.53-27.53,18.27-5.57,12-3.43,23.44,5.4,33.32,3.4,3.8,5.7,7.77,5,13-.88,6.76-1.81,13.52-2.83,20.27A992.2,992.2,0,0,0,74.06,235.75c-1.53,62.31,4.57,124.08,13.36,185.64a16.57,16.57,0,0,1-4.62,14.55c-11.78,12.72-11.52,30.62.46,42.65s29.77,12.43,42.65.7a15.87,15.87,0,0,1,14.72-4,521.69,521.69,0,0,0,55.81,8c53.9,4.72,107.18.77,159.51-12.74,13.4-3.47,23.13-2.55,32.15,8.58,5.94,7.32,15,9.76,24.48,8.45,12.45-1.73,21.14-8.75,25.33-20.56s1.38-22.29-7.05-31.34C427.49,432,425.74,427.89,426.43,422.9ZM418.72,446c6.65,7.41,6.81,15.51.31,21.6-6.26,5.87-14.6,5.39-21.33-1.25-2.14-2.11-4.19-4.3-6.39-6.33-8.22-7.59-17.88-10.2-28.64-7.35A484.93,484.93,0,0,1,222.3,468.86a488.5,488.5,0,0,1-78.77-9.24c-10.51-2.08-19.76.21-27.81,7.36-7.18,6.39-15.13,6.37-21.31.06-6-6.09-5.77-13.93.78-20.85,8.8-9.3,9.3-20.26,7.53-32.14C93.63,353,88.43,291.66,90.21,229.85A999.76,999.76,0,0,1,102.75,98.67c2-12.48.1-23.27-9.09-32.61-5.37-5.46-4.53-13.76,1-19.34S108.51,40.2,114,45.55c9.94,9.67,21.33,10.87,34.19,8.11,38-8.16,76.46-12.9,115.45-12.34,34.27.48,68,5.07,101.48,12.17,13.25,2.81,24.91,1.9,35.11-8.11,4.09-4,9.63-4.36,14.92-1.71a15.11,15.11,0,0,1,8.72,12.94,15.57,15.57,0,0,1-4.28,10.48c-7.46,7.66-10.27,16.68-8.8,27.37,3.7,26.87,7.57,53.74,9.85,80.79a997.61,997.61,0,0,1,2.91,115.34c-1.39,43.68-6.84,87-12.86,130.17C409.34,430.46,412.26,438.82,418.72,446Z"/><path class="cls-1" d="M377,257c0-46.33-.06-92.66.11-139,0-4.15-1-5.13-5.11-5.12q-115.24.21-230.49,0c-3.74,0-4.61.87-4.6,4.6q.18,139.49,0,279c0,3.71.84,4.61,4.6,4.61q115.23-.19,230.48,0c4.15,0,5.13-1,5.12-5.1C376.94,349.67,377,303.33,377,257ZM256.88,217.09c-2.27-.08-2.64-1.61-3.37-3.05-7.66-15.08-6.29-34.56,3.77-48.18,9.51,15.78,10.92,31.56,3.32,47.94C259.86,215.4,259.44,217.17,256.88,217.09ZM356,385.1q-43.24-.3-86.49,0c-3.8,0-4.94-1-4.54-4.64s-1.11-8.32.69-10.63c1.92-2.47,6.83-.67,10.43-.84,31.23-1.44,55.59-29.65,53-61.4-.11-1.36.13-2.69-1.95-2.6-11.78.51-23.65-1.23-35.33,1.64-9.95,2.43-18.49,7.33-26.74,15.14,0-8.18.11-15.28-.05-22.38-.07-3.2,2.07-2.42,3.69-2.36a61.49,61.49,0,0,0,23.57-3.41A56.89,56.89,0,0,0,329,235.49c-.13-1.43,0-2.59-2-2.51-11.47.44-23-1.13-34.38,1.4-10.3,2.29-19.16,7.36-27.54,15.29.28-7-.91-12.63,3.72-18.67,20.38-26.58,15.71-65-9.84-87.48-1.68-1.48-2.43-1.29-4,.1-26.54,23.65-30,61.89-8,89.95,2.63,3.35,2.8,5,1.6,15.72-9.34-8.9-20.11-14.65-32.67-15.76-9.43-.84-19-.36-28.46-.57-2.08-.05-2.32.87-2.46,2.65A56.54,56.54,0,0,0,241.47,297c7.53,0,7.53,0,7.53,7.47V321.7c-9.85-9.33-20.64-15.07-33.21-16.2-9.42-.85-19-.32-28.46-.54-2.2,0-2.25,1-2.37,2.72C182.66,341.59,208.1,369,242.05,369c6.92,0,6.92,0,6.93,6.55,0,9.46,0,9.44-9.54,9.44-27.33,0-54.66-.1-82,.1-3.86,0-4.54-1-4.53-4.65q.15-123.48,0-247c0-3.81,1-4.58,4.65-4.57q99.48.18,199,0c3.77,0,4.58.94,4.57,4.63q-.18,123.23,0,246.46C361.1,384.16,360.09,385.12,356,385.1Zm-89.74-32.38c2.81-19.93,22.4-33.45,45.56-31.45C309,341.16,289.41,354.68,266.22,352.72Zm0-72.13c3.43-20.33,23.54-34.08,45.61-31.17C308.31,269.8,288.34,283.45,266.19,280.59Zm-18.24.14c-23.53,1.79-41.24-10.28-45.81-31C222.07,245.17,243.18,259.3,248,280.73ZM241.56,353c-18.31-.09-34.11-11.75-38.88-28.62-.51-1.81-1.56-3.23,1.76-3.46,18.51-1.32,35.07,8.66,41.72,25.41C248.82,353,248.82,353,241.56,353Z"/></svg>