<svg id="Layer_1" data-name="Layer 1" xmlns="http://www.w3.org/2000/svg" viewBox="0 0 142 192"><defs><style>.cls-1{fill:#003554;}.cls-2{fill:#1789fc;}</style></defs><title>water_droplet</title><path class="cls-1" d="M127.53,83.45c-6.37-10.39-14.4-19.55-22.25-28.82C91.69,38.6,79.18,21.87,71,1c-1.93,4.53-3.35,8-4.89,11.45C58.73,28.92,47.41,42.64,35.78,56.15c-9.13,10.58-18.5,21-25,33.52-15.5,29.76-12.55,62.47,15.12,84.45,44.51,35.35,98.85,8.11,111.23-29.7C144.25,122.63,139.14,102.41,127.53,83.45ZM85.26,175.07c-30.63,8.4-64.22-11.76-69.78-42.29-2.35-12.87.82-25.1,6.83-36.6,4-7.56,9.14-14.28,14.6-20.8C42.9,68.24,49,61.2,55,54.05A193.81,193.81,0,0,0,71.32,31.43c10,16.28,22.37,29.87,33.93,44.05,8.34,10.24,16,20.94,19.48,33.91C132.77,139.08,116.17,166.59,85.26,175.07Z"/><path class="cls-2" d="M71.32,31.43c10,16.28,22.37,29.87,33.93,44.05,8.34,10.24,16,20.94,19.48,33.91,8,29.68-8.56,57.2-39.47,65.68-30.63,8.4-64.22-11.76-69.78-42.29-2.35-12.87.82-25.1,6.83-36.6,4-7.56,9.14-14.28,14.6-20.8C42.9,68.24,49,61.2,55,54.05A193.81,193.81,0,0,0,71.32,31.43Z"/><path class="cls-1" d="M65.8,160c-18.47-1-34-15.77-35-33.11-.12-2-.9-4.87,2.23-5.12s2.7,2.61,3,4.69c2,15.82,14.51,27.53,30,28.2,2.22.1,5.37-.62,5.11,2.93S67.63,159.71,65.8,160Z"/></svg>